<svg viewBox="0 0 1200 720" xmlns="http://www.w3.org/2000/svg" role="img" aria-label="Illustration sombre d'un échiquier moderne avec flèches algorithmiques">
  <defs>
    <linearGradient id="bg6" x1="0" y1="0" x2="1" y2="1">
      <stop offset="0%" stop-color="#02050b"/>
      <stop offset="100%" stop-color="#111820"/>
    </linearGradient>
    <radialGradient id="metal" cx="50%" cy="20%" r="70%">
      <stop offset="0%" stop-color="#1a2938"/>
      <stop offset="100%" stop-color="#07101a"/>
    </radialGradient>
  </defs>
  <rect width="1200" height="720" fill="url(#bg6)" rx="28"/>
  <g transform="translate(200 140)">
    <rect width="760" height="430" rx="24" fill="url(#metal)"/>
    <g stroke="#0cffb1" stroke-width="4" opacity="0.6">
      <path d="M80 70 l640 0"/>
      <path d="M80 140 l640 0"/>
      <path d="M80 210 l640 0"/>
      <path d="M80 280 l640 0"/>
      <path d="M80 350 l640 0"/>
      <path d="M80 70 v280"/>
      <path d="M155 70 v280"/>
      <path d="M230 70 v280"/>
      <path d="M305 70 v280"/>
      <path d="M380 70 v280"/>
      <path d="M455 70 v280"/>
      <path d="M530 70 v280"/>
      <path d="M605 70 v280"/>
    </g>
    <polygon points="420,250 400,220 460,220" fill="#00ffcd" opacity="0.85"/>
    <path d="M450 220 c30 -18 70 12 76 44" fill="none" stroke="#80ffe5" stroke-width="5" stroke-linecap="round"/> 
    <path d="M450 220 l-72 -56" fill="none" stroke="#85ffe8" stroke-width="4" stroke-linecap="round"/>
    <path d="M374 164 l18 -12 16 22" fill="none" stroke="#85ffe8" stroke-width="4" stroke-linecap="round"/>
    <circle cx="520" cy="270" r="14" fill="#00ffd5" opacity="0.9"/>
    <circle cx="290" cy="170" r="14" fill="#65ffd2" opacity="0.9"/>
    <rect x="82" y="72" width="90" height="90" rx="18" fill="#0d1b27"/>
    <rect x="202" y="72" width="90" height="90" rx="18" fill="#0d1b27"/>
    <rect x="322" y="72" width="90" height="90" rx="18" fill="#0d1b27"/>
    <rect x="442" y="72" width="90" height="90" rx="18" fill="#0d1b27"/>
    <rect x="562" y="72" width="90" height="90" rx="18" fill="#0d1b27"/>
  </g>
  <text x="195" y="640" fill="#8dffe1" font-family="Inter, Arial, sans-serif" font-size="28">Algorithme - coup idéal</text>
</svg>
