<svg viewBox="0 0 1200 720" xmlns="http://www.w3.org/2000/svg" role="img" aria-label="Illustration sombre de flux de données">
  <defs>
    <linearGradient id="bg" x1="0" y1="0" x2="1" y2="1">
      <stop offset="0%" stop-color="#05070b"/>
      <stop offset="100%" stop-color="#101620"/>
    </linearGradient>
    <linearGradient id="glow" x1="0" y1="0" x2="1" y2="0">
      <stop offset="0%" stop-color="#00ff8c" stop-opacity="0.8"/>
      <stop offset="100%" stop-color="#d2fffb" stop-opacity="0.8"/>
    </linearGradient>
  </defs>
  <rect width="1200" height="720" fill="url(#bg)" rx="32"/>
  <g opacity="0.9" stroke-linecap="round" stroke-linejoin="round">
    <line x1="160" y1="180" x2="440" y2="140" stroke="#16343f" stroke-width="14"/>
    <line x1="180" y1="280" x2="520" y2="320" stroke="#142d3d" stroke-width="12"/>
    <path d="M380 512 C 500 460 700 520 780 420" fill="none" stroke="#102a34" stroke-width="16"/>
    <circle cx="240" cy="180" r="20" fill="#0d191f" stroke="url(#glow)" stroke-width="4"/>
    <circle cx="500" cy="320" r="18" fill="#0d191f" stroke="url(#glow)" stroke-width="4"/>
    <circle cx="760" cy="420" r="22" fill="#0d191f" stroke="url(#glow)" stroke-width="4"/>
  </g>
  <g stroke="url(#glow)" stroke-width="6" fill="none" opacity="0.95">
    <path d="M220 190 C 340 160 420 200 540 180"/>
    <path d="M220 290 C 360 280 430 340 540 320"/>
    <path d="M540 320 C 640 310 720 370 820 350"/>
    <circle cx="970" cy="180" r="8" fill="#00ff8c"/>
    <circle cx="880" cy="420" r="8" fill="#d2fffb"/>
  </g>
  <rect x="780" y="130" width="260" height="110" rx="22" fill="#111827" opacity="0.96"/>
  <text x="820" y="175" fill="#c1ffe1" font-family="Inter, Arial, sans-serif" font-size="26">Data flow</text>
  <text x="820" y="212" fill="#8ae1c7" font-family="Inter, Arial, sans-serif" font-size="18">streaming pipeline</text>
  <g transform="translate(160 380)">
    <rect x="0" y="0" width="180" height="110" rx="18" fill="#09101a" stroke="#0c2f1d" stroke-width="2"/>
    <path d="M26 36 h60 M26 56 h100 M26 76 h50" fill="none" stroke="#00ff8c" stroke-width="4" stroke-linecap="round"/>
    <circle cx="148" cy="42" r="10" fill="#00ff8c" opacity="0.9"/>
  </g>
  <g transform="translate(420 460)">
    <rect x="0" y="0" width="260" height="130" rx="20" fill="#0d1620" stroke="#0f3448" stroke-width="2"/>
    <rect x="18" y="18" width="56" height="18" rx="8" fill="#0b2b21"/>
    <rect x="18" y="46" width="210" height="18" rx="8" fill="#08281c"/>
    <rect x="18" y="74" width="130" height="18" rx="8" fill="#08281c"/>
  </g>
</svg>
