<svg viewBox="0 0 1200 720" xmlns="http://www.w3.org/2000/svg" role="img" aria-label="Illustration sombre d'éditeur de code moderne avec badge qualité">
  <defs>
    <radialGradient id="bg5" cx="50%" cy="50%" r="70%">
      <stop offset="0%" stop-color="#0f141c"/>
      <stop offset="100%" stop-color="#08121b"/>
    </radialGradient>
    <linearGradient id="codeGlow" x1="0" y1="0" x2="1" y2="1">
      <stop offset="0%" stop-color="#8dffdc"/>
      <stop offset="100%" stop-color="#14ffcc"/>
    </linearGradient>
  </defs>
  <rect width="1200" height="720" fill="url(#bg5)" rx="30"/>
  <rect x="140" y="120" width="920" height="480" rx="28" fill="#0b121b" stroke="#07272f" stroke-width="5"/>
  <rect x="180" y="170" width="820" height="44" rx="12" fill="#08121e"/>
  <circle cx="218" cy="192" r="8" fill="#0b2f25" stroke="#23ffd6" stroke-width="3"/>
  <circle cx="244" cy="192" r="8" fill="#0b2f25" stroke="#22f6cd" stroke-width="3"/>
  <circle cx="270" cy="192" r="8" fill="#0b2f25" stroke="#20e8c8" stroke-width="3"/>
  <g transform="translate(220 240)" fill="none" stroke="#7effd8" stroke-width="8" stroke-linecap="round">
    <path d="M0 0 h480"/>
    <path d="M0 48 h420"/>
    <path d="M0 96 h500"/>
  </g>
  <g transform="translate(220 260)" fill="#80ffdc">
    <rect x="0" y="0" width="60" height="22" rx="8"/>
    <rect x="80" y="0" width="220" height="22" rx="8"/>
    <rect x="0" y="40" width="420" height="22" rx="8"/>
    <rect x="0" y="80" width="220" height="22" rx="8"/>
  </g>
  <path d="M760 228 l0 150 130 0 0 80 -130 0 0 20 150 0" fill="#0c1a23" stroke="#25ffc4" stroke-width="4"/>
  <circle cx="810" cy="302" r="38" fill="#061117" stroke="#20ffe3" stroke-width="5"/>
  <path d="M796 302 l18 20 34 -40" fill="none" stroke="#7bffe3" stroke-width="6" stroke-linecap="round"/>
  <path d="M786 316 l18 18 44 -46" fill="none" stroke="#7bffe3" stroke-width="4" stroke-linecap="round"/>
  <text x="772" y="370" fill="#94ffe7" font-family="Inter, Arial, sans-serif" font-size="28">PASS</text>
</svg>
